<mxfile host="app.diagrams.net" modified="2023-07-04T10:38:07.737Z" agent="Mozilla/5.0 (Macintosh; Intel Mac OS X 10_15_7) AppleWebKit/605.1.15 (KHTML, like Gecko) Version/16.5.1 Safari/605.1.15" etag="G1u5yRyGQeqTnDhjGBYa" version="21.5.2" type="github">
  <diagram name="Page-1" id="eWGwpwbEbT-mJO6GZnlm">
    <mxGraphModel dx="2051" dy="1393" grid="1" gridSize="10" guides="1" tooltips="1" connect="1" arrows="1" fold="1" page="1" pageScale="1" pageWidth="827" pageHeight="1169" math="0" shadow="0">
      <root>
        <mxCell id="0" />
        <mxCell id="1" parent="0" />
        <mxCell id="67jnev-_NZW0IaywCIKm-7" style="edgeStyle=orthogonalEdgeStyle;rounded=0;orthogonalLoop=1;jettySize=auto;html=1;exitX=0.5;exitY=1;exitDx=0;exitDy=0;" edge="1" parent="1" source="67jnev-_NZW0IaywCIKm-1">
          <mxGeometry relative="1" as="geometry">
            <mxPoint x="310" y="200" as="targetPoint" />
          </mxGeometry>
        </mxCell>
        <mxCell id="67jnev-_NZW0IaywCIKm-1" value="Pardot Retargeting&lt;br&gt;(tech)" style="shape=module;align=left;spacingLeft=20;align=center;verticalAlign=top;whiteSpace=wrap;html=1;" vertex="1" parent="1">
          <mxGeometry x="160" y="40" width="130" height="50" as="geometry" />
        </mxCell>
        <mxCell id="67jnev-_NZW0IaywCIKm-8" style="edgeStyle=orthogonalEdgeStyle;rounded=0;orthogonalLoop=1;jettySize=auto;html=1;exitX=0.5;exitY=1;exitDx=0;exitDy=0;" edge="1" parent="1" source="67jnev-_NZW0IaywCIKm-2">
          <mxGeometry relative="1" as="geometry">
            <mxPoint x="310" y="200" as="targetPoint" />
          </mxGeometry>
        </mxCell>
        <mxCell id="67jnev-_NZW0IaywCIKm-2" value="Post Demo &lt;br&gt;(No-SHow)" style="shape=module;align=left;spacingLeft=20;align=center;verticalAlign=top;whiteSpace=wrap;html=1;" vertex="1" parent="1">
          <mxGeometry x="320" y="40" width="130" height="50" as="geometry" />
        </mxCell>
        <mxCell id="67jnev-_NZW0IaywCIKm-9" style="edgeStyle=orthogonalEdgeStyle;rounded=0;orthogonalLoop=1;jettySize=auto;html=1;exitX=0.5;exitY=1;exitDx=0;exitDy=0;" edge="1" parent="1" source="67jnev-_NZW0IaywCIKm-3">
          <mxGeometry relative="1" as="geometry">
            <mxPoint x="310" y="200" as="targetPoint" />
          </mxGeometry>
        </mxCell>
        <mxCell id="67jnev-_NZW0IaywCIKm-3" value="Post Demo &lt;br&gt;(Not Interested)" style="shape=module;align=left;spacingLeft=20;align=center;verticalAlign=top;whiteSpace=wrap;html=1;" vertex="1" parent="1">
          <mxGeometry x="469" y="40" width="130" height="50" as="geometry" />
        </mxCell>
        <mxCell id="67jnev-_NZW0IaywCIKm-6" style="edgeStyle=orthogonalEdgeStyle;rounded=0;orthogonalLoop=1;jettySize=auto;html=1;exitX=0.5;exitY=1;exitDx=0;exitDy=0;entryX=0.5;entryY=0;entryDx=0;entryDy=0;" edge="1" parent="1" source="67jnev-_NZW0IaywCIKm-4" target="67jnev-_NZW0IaywCIKm-5">
          <mxGeometry relative="1" as="geometry" />
        </mxCell>
        <mxCell id="67jnev-_NZW0IaywCIKm-4" value="Pardot Retargeting&lt;br&gt;(Gen)" style="shape=module;align=left;spacingLeft=20;align=center;verticalAlign=top;whiteSpace=wrap;html=1;" vertex="1" parent="1">
          <mxGeometry x="10" y="40" width="130" height="50" as="geometry" />
        </mxCell>
        <mxCell id="67jnev-_NZW0IaywCIKm-75" style="edgeStyle=orthogonalEdgeStyle;rounded=0;orthogonalLoop=1;jettySize=auto;html=1;exitX=0.5;exitY=1;exitDx=0;exitDy=0;entryX=0.5;entryY=0;entryDx=0;entryDy=0;" edge="1" parent="1" source="67jnev-_NZW0IaywCIKm-5" target="67jnev-_NZW0IaywCIKm-20">
          <mxGeometry relative="1" as="geometry" />
        </mxCell>
        <mxCell id="67jnev-_NZW0IaywCIKm-5" value="START" style="shape=hexagon;perimeter=hexagonPerimeter2;whiteSpace=wrap;html=1;fixedSize=1;" vertex="1" parent="1">
          <mxGeometry x="240" y="200" width="140" height="40" as="geometry" />
        </mxCell>
        <mxCell id="67jnev-_NZW0IaywCIKm-10" value="#R.Gen" style="text;html=1;strokeColor=none;fillColor=none;align=center;verticalAlign=middle;whiteSpace=wrap;rounded=0;" vertex="1" parent="1">
          <mxGeometry x="45" y="150" width="60" height="30" as="geometry" />
        </mxCell>
        <mxCell id="67jnev-_NZW0IaywCIKm-11" value="#R.Tec" style="text;html=1;strokeColor=none;fillColor=none;align=center;verticalAlign=middle;whiteSpace=wrap;rounded=0;" vertex="1" parent="1">
          <mxGeometry x="195" y="150" width="60" height="30" as="geometry" />
        </mxCell>
        <mxCell id="67jnev-_NZW0IaywCIKm-12" value="#D.NS" style="text;html=1;strokeColor=none;fillColor=none;align=center;verticalAlign=middle;whiteSpace=wrap;rounded=0;" vertex="1" parent="1">
          <mxGeometry x="355" y="150" width="60" height="30" as="geometry" />
        </mxCell>
        <mxCell id="67jnev-_NZW0IaywCIKm-13" value="#D.NI" style="text;html=1;strokeColor=none;fillColor=none;align=center;verticalAlign=middle;whiteSpace=wrap;rounded=0;" vertex="1" parent="1">
          <mxGeometry x="504" y="150" width="60" height="30" as="geometry" />
        </mxCell>
        <mxCell id="67jnev-_NZW0IaywCIKm-38" style="edgeStyle=orthogonalEdgeStyle;rounded=0;orthogonalLoop=1;jettySize=auto;html=1;entryX=0;entryY=0.5;entryDx=0;entryDy=0;" edge="1" parent="1" source="67jnev-_NZW0IaywCIKm-20" target="67jnev-_NZW0IaywCIKm-14">
          <mxGeometry relative="1" as="geometry" />
        </mxCell>
        <mxCell id="67jnev-_NZW0IaywCIKm-39" style="edgeStyle=orthogonalEdgeStyle;rounded=0;orthogonalLoop=1;jettySize=auto;html=1;entryX=0;entryY=0.5;entryDx=0;entryDy=0;" edge="1" parent="1" source="67jnev-_NZW0IaywCIKm-14" target="67jnev-_NZW0IaywCIKm-23">
          <mxGeometry relative="1" as="geometry" />
        </mxCell>
        <mxCell id="67jnev-_NZW0IaywCIKm-112" style="edgeStyle=orthogonalEdgeStyle;rounded=0;orthogonalLoop=1;jettySize=auto;html=1;entryX=0.5;entryY=0;entryDx=0;entryDy=0;" edge="1" parent="1" source="67jnev-_NZW0IaywCIKm-20" target="67jnev-_NZW0IaywCIKm-107">
          <mxGeometry relative="1" as="geometry" />
        </mxCell>
        <mxCell id="67jnev-_NZW0IaywCIKm-20" value="Mail = 1" style="rhombus;whiteSpace=wrap;html=1;" vertex="1" parent="1">
          <mxGeometry x="270" y="280" width="80" height="80" as="geometry" />
        </mxCell>
        <mxCell id="67jnev-_NZW0IaywCIKm-31" style="edgeStyle=orthogonalEdgeStyle;rounded=0;orthogonalLoop=1;jettySize=auto;html=1;exitX=1;exitY=0.5;exitDx=0;exitDy=0;entryX=0;entryY=0.5;entryDx=0;entryDy=0;" edge="1" parent="1" source="67jnev-_NZW0IaywCIKm-23" target="67jnev-_NZW0IaywCIKm-27">
          <mxGeometry relative="1" as="geometry">
            <mxPoint x="718" y="330" as="sourcePoint" />
          </mxGeometry>
        </mxCell>
        <mxCell id="67jnev-_NZW0IaywCIKm-23" value="R.GEN" style="rhombus;whiteSpace=wrap;html=1;" vertex="1" parent="1">
          <mxGeometry x="619" y="280" width="80" height="80" as="geometry" />
        </mxCell>
        <mxCell id="67jnev-_NZW0IaywCIKm-32" style="edgeStyle=orthogonalEdgeStyle;rounded=0;orthogonalLoop=1;jettySize=auto;html=1;entryX=0;entryY=0.5;entryDx=0;entryDy=0;" edge="1" parent="1" target="67jnev-_NZW0IaywCIKm-28">
          <mxGeometry relative="1" as="geometry">
            <mxPoint x="700" y="410" as="sourcePoint" />
          </mxGeometry>
        </mxCell>
        <mxCell id="67jnev-_NZW0IaywCIKm-24" value="R.TEC" style="rhombus;whiteSpace=wrap;html=1;" vertex="1" parent="1">
          <mxGeometry x="619" y="370" width="80" height="80" as="geometry" />
        </mxCell>
        <mxCell id="67jnev-_NZW0IaywCIKm-33" style="edgeStyle=orthogonalEdgeStyle;rounded=0;orthogonalLoop=1;jettySize=auto;html=1;exitX=1;exitY=0.5;exitDx=0;exitDy=0;" edge="1" parent="1" source="67jnev-_NZW0IaywCIKm-25" target="67jnev-_NZW0IaywCIKm-29">
          <mxGeometry relative="1" as="geometry">
            <mxPoint x="719" y="500" as="sourcePoint" />
          </mxGeometry>
        </mxCell>
        <mxCell id="67jnev-_NZW0IaywCIKm-25" value="D.NS" style="rhombus;whiteSpace=wrap;html=1;" vertex="1" parent="1">
          <mxGeometry x="620" y="460" width="80" height="80" as="geometry" />
        </mxCell>
        <mxCell id="67jnev-_NZW0IaywCIKm-34" style="edgeStyle=orthogonalEdgeStyle;rounded=0;orthogonalLoop=1;jettySize=auto;html=1;entryX=0;entryY=0.5;entryDx=0;entryDy=0;" edge="1" parent="1" source="67jnev-_NZW0IaywCIKm-26" target="67jnev-_NZW0IaywCIKm-30">
          <mxGeometry relative="1" as="geometry">
            <mxPoint x="719" y="590" as="sourcePoint" />
          </mxGeometry>
        </mxCell>
        <mxCell id="67jnev-_NZW0IaywCIKm-26" value="D.NI" style="rhombus;whiteSpace=wrap;html=1;" vertex="1" parent="1">
          <mxGeometry x="620" y="550" width="80" height="80" as="geometry" />
        </mxCell>
        <mxCell id="67jnev-_NZW0IaywCIKm-106" style="edgeStyle=orthogonalEdgeStyle;rounded=0;orthogonalLoop=1;jettySize=auto;html=1;entryX=1;entryY=0.5;entryDx=0;entryDy=0;" edge="1" parent="1" source="67jnev-_NZW0IaywCIKm-27" target="67jnev-_NZW0IaywCIKm-107">
          <mxGeometry relative="1" as="geometry">
            <mxPoint x="1010" y="630" as="targetPoint" />
            <Array as="points">
              <mxPoint x="1520" y="320" />
              <mxPoint x="1520" y="695" />
            </Array>
          </mxGeometry>
        </mxCell>
        <mxCell id="67jnev-_NZW0IaywCIKm-27" value="Mail #1 ver.1" style="rounded=0;whiteSpace=wrap;html=1;" vertex="1" parent="1">
          <mxGeometry x="759" y="290" width="120" height="60" as="geometry" />
        </mxCell>
        <mxCell id="67jnev-_NZW0IaywCIKm-156" style="edgeStyle=orthogonalEdgeStyle;rounded=0;orthogonalLoop=1;jettySize=auto;html=1;" edge="1" parent="1" source="67jnev-_NZW0IaywCIKm-28" target="67jnev-_NZW0IaywCIKm-119">
          <mxGeometry relative="1" as="geometry" />
        </mxCell>
        <mxCell id="67jnev-_NZW0IaywCIKm-28" value="Mail #1 ver.2&amp;nbsp;" style="rounded=0;whiteSpace=wrap;html=1;" vertex="1" parent="1">
          <mxGeometry x="759" y="380" width="120" height="60" as="geometry" />
        </mxCell>
        <mxCell id="67jnev-_NZW0IaywCIKm-134" style="edgeStyle=orthogonalEdgeStyle;rounded=0;orthogonalLoop=1;jettySize=auto;html=1;" edge="1" parent="1" source="67jnev-_NZW0IaywCIKm-29" target="67jnev-_NZW0IaywCIKm-126">
          <mxGeometry relative="1" as="geometry" />
        </mxCell>
        <mxCell id="67jnev-_NZW0IaywCIKm-29" value="Mail #1 ver.3" style="rounded=0;whiteSpace=wrap;html=1;" vertex="1" parent="1">
          <mxGeometry x="759" y="470" width="120" height="60" as="geometry" />
        </mxCell>
        <mxCell id="67jnev-_NZW0IaywCIKm-139" style="edgeStyle=orthogonalEdgeStyle;rounded=0;orthogonalLoop=1;jettySize=auto;html=1;" edge="1" parent="1" source="67jnev-_NZW0IaywCIKm-30" target="67jnev-_NZW0IaywCIKm-138">
          <mxGeometry relative="1" as="geometry" />
        </mxCell>
        <mxCell id="67jnev-_NZW0IaywCIKm-30" value="Mail #1 ver.4" style="rounded=0;whiteSpace=wrap;html=1;" vertex="1" parent="1">
          <mxGeometry x="759" y="560" width="120" height="60" as="geometry" />
        </mxCell>
        <mxCell id="67jnev-_NZW0IaywCIKm-78" value="NO" style="text;html=1;strokeColor=none;fillColor=none;align=center;verticalAlign=middle;whiteSpace=wrap;rounded=0;" vertex="1" parent="1">
          <mxGeometry x="350" y="280" width="60" height="30" as="geometry" />
        </mxCell>
        <mxCell id="67jnev-_NZW0IaywCIKm-79" value="YES" style="text;html=1;strokeColor=none;fillColor=none;align=center;verticalAlign=middle;whiteSpace=wrap;rounded=0;" vertex="1" parent="1">
          <mxGeometry x="240" y="360" width="60" height="30" as="geometry" />
        </mxCell>
        <mxCell id="67jnev-_NZW0IaywCIKm-81" style="edgeStyle=orthogonalEdgeStyle;rounded=0;orthogonalLoop=1;jettySize=auto;html=1;entryX=0;entryY=0.5;entryDx=0;entryDy=0;" edge="1" parent="1" source="67jnev-_NZW0IaywCIKm-14" target="67jnev-_NZW0IaywCIKm-24">
          <mxGeometry relative="1" as="geometry" />
        </mxCell>
        <mxCell id="67jnev-_NZW0IaywCIKm-82" style="edgeStyle=orthogonalEdgeStyle;rounded=0;orthogonalLoop=1;jettySize=auto;html=1;entryX=0;entryY=0.5;entryDx=0;entryDy=0;" edge="1" parent="1" source="67jnev-_NZW0IaywCIKm-14" target="67jnev-_NZW0IaywCIKm-25">
          <mxGeometry relative="1" as="geometry" />
        </mxCell>
        <mxCell id="67jnev-_NZW0IaywCIKm-83" style="edgeStyle=orthogonalEdgeStyle;rounded=0;orthogonalLoop=1;jettySize=auto;html=1;entryX=0;entryY=0.5;entryDx=0;entryDy=0;" edge="1" parent="1" source="67jnev-_NZW0IaywCIKm-14" target="67jnev-_NZW0IaywCIKm-26">
          <mxGeometry relative="1" as="geometry" />
        </mxCell>
        <mxCell id="67jnev-_NZW0IaywCIKm-14" value="Pause for X days" style="rounded=1;whiteSpace=wrap;html=1;" vertex="1" parent="1">
          <mxGeometry x="410" y="290" width="140" height="60" as="geometry" />
        </mxCell>
        <mxCell id="67jnev-_NZW0IaywCIKm-84" style="edgeStyle=orthogonalEdgeStyle;rounded=0;orthogonalLoop=1;jettySize=auto;html=1;entryX=0;entryY=0.5;entryDx=0;entryDy=0;" edge="1" parent="1" source="67jnev-_NZW0IaywCIKm-86" target="67jnev-_NZW0IaywCIKm-104">
          <mxGeometry relative="1" as="geometry" />
        </mxCell>
        <mxCell id="67jnev-_NZW0IaywCIKm-85" style="edgeStyle=orthogonalEdgeStyle;rounded=0;orthogonalLoop=1;jettySize=auto;html=1;entryX=0;entryY=0.5;entryDx=0;entryDy=0;" edge="1" parent="1" source="67jnev-_NZW0IaywCIKm-104" target="67jnev-_NZW0IaywCIKm-88">
          <mxGeometry relative="1" as="geometry" />
        </mxCell>
        <mxCell id="67jnev-_NZW0IaywCIKm-86" value="Mail = 2" style="rhombus;whiteSpace=wrap;html=1;" vertex="1" parent="1">
          <mxGeometry x="270" y="860" width="80" height="80" as="geometry" />
        </mxCell>
        <mxCell id="67jnev-_NZW0IaywCIKm-87" style="edgeStyle=orthogonalEdgeStyle;rounded=0;orthogonalLoop=1;jettySize=auto;html=1;exitX=1;exitY=0.5;exitDx=0;exitDy=0;entryX=0;entryY=0.5;entryDx=0;entryDy=0;" edge="1" parent="1" source="67jnev-_NZW0IaywCIKm-88" target="67jnev-_NZW0IaywCIKm-95">
          <mxGeometry relative="1" as="geometry">
            <mxPoint x="718" y="910" as="sourcePoint" />
          </mxGeometry>
        </mxCell>
        <mxCell id="67jnev-_NZW0IaywCIKm-88" value="T1" style="rhombus;whiteSpace=wrap;html=1;" vertex="1" parent="1">
          <mxGeometry x="619" y="860" width="80" height="80" as="geometry" />
        </mxCell>
        <mxCell id="67jnev-_NZW0IaywCIKm-89" style="edgeStyle=orthogonalEdgeStyle;rounded=0;orthogonalLoop=1;jettySize=auto;html=1;entryX=0;entryY=0.5;entryDx=0;entryDy=0;" edge="1" parent="1" target="67jnev-_NZW0IaywCIKm-96">
          <mxGeometry relative="1" as="geometry">
            <mxPoint x="700" y="990" as="sourcePoint" />
          </mxGeometry>
        </mxCell>
        <mxCell id="67jnev-_NZW0IaywCIKm-90" value="T2" style="rhombus;whiteSpace=wrap;html=1;" vertex="1" parent="1">
          <mxGeometry x="619" y="950" width="80" height="80" as="geometry" />
        </mxCell>
        <mxCell id="67jnev-_NZW0IaywCIKm-91" style="edgeStyle=orthogonalEdgeStyle;rounded=0;orthogonalLoop=1;jettySize=auto;html=1;exitX=1;exitY=0.5;exitDx=0;exitDy=0;" edge="1" parent="1" source="67jnev-_NZW0IaywCIKm-92" target="67jnev-_NZW0IaywCIKm-97">
          <mxGeometry relative="1" as="geometry">
            <mxPoint x="719" y="1080" as="sourcePoint" />
          </mxGeometry>
        </mxCell>
        <mxCell id="67jnev-_NZW0IaywCIKm-92" value="T3" style="rhombus;whiteSpace=wrap;html=1;" vertex="1" parent="1">
          <mxGeometry x="620" y="1040" width="80" height="80" as="geometry" />
        </mxCell>
        <mxCell id="67jnev-_NZW0IaywCIKm-93" style="edgeStyle=orthogonalEdgeStyle;rounded=0;orthogonalLoop=1;jettySize=auto;html=1;entryX=0;entryY=0.5;entryDx=0;entryDy=0;" edge="1" parent="1" source="67jnev-_NZW0IaywCIKm-94" target="67jnev-_NZW0IaywCIKm-98">
          <mxGeometry relative="1" as="geometry">
            <mxPoint x="719" y="1170" as="sourcePoint" />
          </mxGeometry>
        </mxCell>
        <mxCell id="67jnev-_NZW0IaywCIKm-94" value="T4" style="rhombus;whiteSpace=wrap;html=1;" vertex="1" parent="1">
          <mxGeometry x="620" y="1130" width="80" height="80" as="geometry" />
        </mxCell>
        <mxCell id="67jnev-_NZW0IaywCIKm-95" value="Mail #1 ver.1" style="rounded=0;whiteSpace=wrap;html=1;" vertex="1" parent="1">
          <mxGeometry x="761" y="870" width="120" height="60" as="geometry" />
        </mxCell>
        <mxCell id="67jnev-_NZW0IaywCIKm-96" value="Mail #1 ver.2&amp;nbsp;" style="rounded=0;whiteSpace=wrap;html=1;" vertex="1" parent="1">
          <mxGeometry x="761" y="960" width="120" height="60" as="geometry" />
        </mxCell>
        <mxCell id="67jnev-_NZW0IaywCIKm-97" value="Mail #1 ver.3" style="rounded=0;whiteSpace=wrap;html=1;" vertex="1" parent="1">
          <mxGeometry x="759" y="1050" width="120" height="60" as="geometry" />
        </mxCell>
        <mxCell id="67jnev-_NZW0IaywCIKm-98" value="Mail #1 ver.4" style="rounded=0;whiteSpace=wrap;html=1;" vertex="1" parent="1">
          <mxGeometry x="759" y="1140" width="120" height="60" as="geometry" />
        </mxCell>
        <mxCell id="67jnev-_NZW0IaywCIKm-99" value="NO" style="text;html=1;strokeColor=none;fillColor=none;align=center;verticalAlign=middle;whiteSpace=wrap;rounded=0;" vertex="1" parent="1">
          <mxGeometry x="350" y="860" width="60" height="30" as="geometry" />
        </mxCell>
        <mxCell id="67jnev-_NZW0IaywCIKm-100" value="YES" style="text;html=1;strokeColor=none;fillColor=none;align=center;verticalAlign=middle;whiteSpace=wrap;rounded=0;" vertex="1" parent="1">
          <mxGeometry x="240" y="940" width="60" height="30" as="geometry" />
        </mxCell>
        <mxCell id="67jnev-_NZW0IaywCIKm-101" style="edgeStyle=orthogonalEdgeStyle;rounded=0;orthogonalLoop=1;jettySize=auto;html=1;entryX=0;entryY=0.5;entryDx=0;entryDy=0;" edge="1" parent="1" source="67jnev-_NZW0IaywCIKm-104" target="67jnev-_NZW0IaywCIKm-90">
          <mxGeometry relative="1" as="geometry" />
        </mxCell>
        <mxCell id="67jnev-_NZW0IaywCIKm-102" style="edgeStyle=orthogonalEdgeStyle;rounded=0;orthogonalLoop=1;jettySize=auto;html=1;entryX=0;entryY=0.5;entryDx=0;entryDy=0;" edge="1" parent="1" source="67jnev-_NZW0IaywCIKm-104" target="67jnev-_NZW0IaywCIKm-92">
          <mxGeometry relative="1" as="geometry" />
        </mxCell>
        <mxCell id="67jnev-_NZW0IaywCIKm-103" style="edgeStyle=orthogonalEdgeStyle;rounded=0;orthogonalLoop=1;jettySize=auto;html=1;entryX=0;entryY=0.5;entryDx=0;entryDy=0;" edge="1" parent="1" source="67jnev-_NZW0IaywCIKm-104" target="67jnev-_NZW0IaywCIKm-94">
          <mxGeometry relative="1" as="geometry" />
        </mxCell>
        <mxCell id="67jnev-_NZW0IaywCIKm-104" value="Pause for X days" style="rounded=1;whiteSpace=wrap;html=1;" vertex="1" parent="1">
          <mxGeometry x="410" y="870" width="140" height="60" as="geometry" />
        </mxCell>
        <mxCell id="67jnev-_NZW0IaywCIKm-113" style="edgeStyle=orthogonalEdgeStyle;rounded=0;orthogonalLoop=1;jettySize=auto;html=1;" edge="1" parent="1" source="67jnev-_NZW0IaywCIKm-107" target="67jnev-_NZW0IaywCIKm-86">
          <mxGeometry relative="1" as="geometry" />
        </mxCell>
        <mxCell id="67jnev-_NZW0IaywCIKm-107" value="" style="rhombus;whiteSpace=wrap;html=1;" vertex="1" parent="1">
          <mxGeometry x="295" y="680" width="30" height="30" as="geometry" />
        </mxCell>
        <mxCell id="67jnev-_NZW0IaywCIKm-117" value="Mail #1" style="text;html=1;strokeColor=none;fillColor=none;align=center;verticalAlign=middle;whiteSpace=wrap;rounded=0;" vertex="1" parent="1">
          <mxGeometry x="630" y="650" width="60" height="30" as="geometry" />
        </mxCell>
        <mxCell id="67jnev-_NZW0IaywCIKm-123" style="edgeStyle=orthogonalEdgeStyle;rounded=0;orthogonalLoop=1;jettySize=auto;html=1;exitX=0.5;exitY=0;exitDx=0;exitDy=0;entryX=1;entryY=0.5;entryDx=0;entryDy=0;" edge="1" parent="1" source="67jnev-_NZW0IaywCIKm-118" target="67jnev-_NZW0IaywCIKm-107">
          <mxGeometry relative="1" as="geometry">
            <Array as="points">
              <mxPoint x="960" y="695" />
            </Array>
          </mxGeometry>
        </mxCell>
        <mxCell id="67jnev-_NZW0IaywCIKm-118" value="Click on Demo" style="rhombus;whiteSpace=wrap;html=1;" vertex="1" parent="1">
          <mxGeometry x="919" y="280" width="80" height="80" as="geometry" />
        </mxCell>
        <mxCell id="67jnev-_NZW0IaywCIKm-120" value="YES" style="text;html=1;strokeColor=none;fillColor=none;align=center;verticalAlign=middle;whiteSpace=wrap;rounded=0;" vertex="1" parent="1">
          <mxGeometry x="974" y="290" width="60" height="30" as="geometry" />
        </mxCell>
        <mxCell id="67jnev-_NZW0IaywCIKm-121" value="NO" style="text;html=1;strokeColor=none;fillColor=none;align=center;verticalAlign=middle;whiteSpace=wrap;rounded=0;" vertex="1" parent="1">
          <mxGeometry x="919" y="350" width="60" height="30" as="geometry" />
        </mxCell>
        <mxCell id="67jnev-_NZW0IaywCIKm-124" value="TAG #DEMO" style="rounded=0;whiteSpace=wrap;html=1;" vertex="1" parent="1">
          <mxGeometry x="1320" y="290" width="120" height="60" as="geometry" />
        </mxCell>
        <mxCell id="67jnev-_NZW0IaywCIKm-130" style="edgeStyle=orthogonalEdgeStyle;rounded=0;orthogonalLoop=1;jettySize=auto;html=1;entryX=1;entryY=0.5;entryDx=0;entryDy=0;" edge="1" parent="1" source="67jnev-_NZW0IaywCIKm-125" target="67jnev-_NZW0IaywCIKm-107">
          <mxGeometry relative="1" as="geometry">
            <Array as="points">
              <mxPoint x="1520" y="410" />
              <mxPoint x="1520" y="695" />
            </Array>
          </mxGeometry>
        </mxCell>
        <mxCell id="67jnev-_NZW0IaywCIKm-125" value="TAG #DEMO" style="rounded=0;whiteSpace=wrap;html=1;" vertex="1" parent="1">
          <mxGeometry x="1320" y="380" width="120" height="60" as="geometry" />
        </mxCell>
        <mxCell id="67jnev-_NZW0IaywCIKm-135" style="edgeStyle=orthogonalEdgeStyle;rounded=0;orthogonalLoop=1;jettySize=auto;html=1;exitX=1;exitY=0.5;exitDx=0;exitDy=0;entryX=0;entryY=0.5;entryDx=0;entryDy=0;" edge="1" parent="1" source="67jnev-_NZW0IaywCIKm-126" target="67jnev-_NZW0IaywCIKm-131">
          <mxGeometry relative="1" as="geometry" />
        </mxCell>
        <mxCell id="67jnev-_NZW0IaywCIKm-126" value="Click on Demo" style="rhombus;whiteSpace=wrap;html=1;" vertex="1" parent="1">
          <mxGeometry x="1079" y="460" width="80" height="80" as="geometry" />
        </mxCell>
        <mxCell id="67jnev-_NZW0IaywCIKm-129" style="edgeStyle=orthogonalEdgeStyle;rounded=0;orthogonalLoop=1;jettySize=auto;html=1;" edge="1" parent="1" source="67jnev-_NZW0IaywCIKm-119" target="67jnev-_NZW0IaywCIKm-125">
          <mxGeometry relative="1" as="geometry" />
        </mxCell>
        <mxCell id="67jnev-_NZW0IaywCIKm-136" style="edgeStyle=orthogonalEdgeStyle;rounded=0;orthogonalLoop=1;jettySize=auto;html=1;entryX=1;entryY=0.5;entryDx=0;entryDy=0;" edge="1" parent="1" source="67jnev-_NZW0IaywCIKm-119" target="67jnev-_NZW0IaywCIKm-107">
          <mxGeometry relative="1" as="geometry">
            <Array as="points">
              <mxPoint x="1039" y="695" />
            </Array>
          </mxGeometry>
        </mxCell>
        <mxCell id="67jnev-_NZW0IaywCIKm-119" value="Click on Demo" style="rhombus;whiteSpace=wrap;html=1;" vertex="1" parent="1">
          <mxGeometry x="999" y="370" width="80" height="80" as="geometry" />
        </mxCell>
        <mxCell id="67jnev-_NZW0IaywCIKm-133" style="edgeStyle=orthogonalEdgeStyle;rounded=0;orthogonalLoop=1;jettySize=auto;html=1;entryX=1;entryY=0.5;entryDx=0;entryDy=0;" edge="1" parent="1" source="67jnev-_NZW0IaywCIKm-131" target="67jnev-_NZW0IaywCIKm-107">
          <mxGeometry relative="1" as="geometry">
            <Array as="points">
              <mxPoint x="1520" y="500" />
              <mxPoint x="1520" y="695" />
            </Array>
          </mxGeometry>
        </mxCell>
        <mxCell id="67jnev-_NZW0IaywCIKm-131" value="TAG #DEMO" style="rounded=0;whiteSpace=wrap;html=1;" vertex="1" parent="1">
          <mxGeometry x="1319" y="470" width="120" height="60" as="geometry" />
        </mxCell>
        <mxCell id="67jnev-_NZW0IaywCIKm-141" style="edgeStyle=orthogonalEdgeStyle;rounded=0;orthogonalLoop=1;jettySize=auto;html=1;" edge="1" parent="1" source="67jnev-_NZW0IaywCIKm-138" target="67jnev-_NZW0IaywCIKm-140">
          <mxGeometry relative="1" as="geometry" />
        </mxCell>
        <mxCell id="67jnev-_NZW0IaywCIKm-142" style="edgeStyle=orthogonalEdgeStyle;rounded=0;orthogonalLoop=1;jettySize=auto;html=1;entryX=1;entryY=0.5;entryDx=0;entryDy=0;" edge="1" parent="1" source="67jnev-_NZW0IaywCIKm-140" target="67jnev-_NZW0IaywCIKm-155">
          <mxGeometry relative="1" as="geometry">
            <Array as="points">
              <mxPoint x="1520" y="590" />
              <mxPoint x="1520" y="695" />
            </Array>
          </mxGeometry>
        </mxCell>
        <mxCell id="67jnev-_NZW0IaywCIKm-140" value="TAG #COM" style="rounded=0;whiteSpace=wrap;html=1;" vertex="1" parent="1">
          <mxGeometry x="1320" y="560" width="120" height="60" as="geometry" />
        </mxCell>
        <mxCell id="67jnev-_NZW0IaywCIKm-143" value="YES" style="text;html=1;strokeColor=none;fillColor=none;align=center;verticalAlign=middle;whiteSpace=wrap;rounded=0;" vertex="1" parent="1">
          <mxGeometry x="1220" y="560" width="60" height="30" as="geometry" />
        </mxCell>
        <mxCell id="67jnev-_NZW0IaywCIKm-144" value="NO" style="text;html=1;strokeColor=none;fillColor=none;align=center;verticalAlign=middle;whiteSpace=wrap;rounded=0;" vertex="1" parent="1">
          <mxGeometry x="1155" y="620" width="60" height="30" as="geometry" />
        </mxCell>
        <mxCell id="67jnev-_NZW0IaywCIKm-146" value="YES" style="text;html=1;strokeColor=none;fillColor=none;align=center;verticalAlign=middle;whiteSpace=wrap;rounded=0;" vertex="1" parent="1">
          <mxGeometry x="1060" y="380" width="60" height="30" as="geometry" />
        </mxCell>
        <mxCell id="67jnev-_NZW0IaywCIKm-147" value="NO" style="text;html=1;strokeColor=none;fillColor=none;align=center;verticalAlign=middle;whiteSpace=wrap;rounded=0;" vertex="1" parent="1">
          <mxGeometry x="990" y="430" width="60" height="30" as="geometry" />
        </mxCell>
        <mxCell id="67jnev-_NZW0IaywCIKm-148" value="YES" style="text;html=1;strokeColor=none;fillColor=none;align=center;verticalAlign=middle;whiteSpace=wrap;rounded=0;" vertex="1" parent="1">
          <mxGeometry x="1140" y="470" width="60" height="30" as="geometry" />
        </mxCell>
        <mxCell id="67jnev-_NZW0IaywCIKm-149" value="NO" style="text;html=1;strokeColor=none;fillColor=none;align=center;verticalAlign=middle;whiteSpace=wrap;rounded=0;" vertex="1" parent="1">
          <mxGeometry x="1070" y="520" width="60" height="30" as="geometry" />
        </mxCell>
        <mxCell id="67jnev-_NZW0IaywCIKm-151" value="SE &lt;br&gt;ESISTE TAG R.Gen&amp;nbsp;&lt;br&gt;E&amp;nbsp;&lt;br&gt;NON ESISTE TAG #DEMO" style="shape=process;whiteSpace=wrap;html=1;backgroundOutline=1;" vertex="1" parent="1">
          <mxGeometry x="1280" y="870" width="270" height="60" as="geometry" />
        </mxCell>
        <mxCell id="67jnev-_NZW0IaywCIKm-152" value="SE &lt;br&gt;ESISTE TAG R.Tec&amp;nbsp;&lt;br&gt;E&amp;nbsp;&lt;br&gt;NON ESISTE TAG #DEMO" style="shape=process;whiteSpace=wrap;html=1;backgroundOutline=1;" vertex="1" parent="1">
          <mxGeometry x="1280" y="960" width="270" height="60" as="geometry" />
        </mxCell>
        <mxCell id="67jnev-_NZW0IaywCIKm-153" value="SE &lt;br&gt;ESISTE TAG D.NS&amp;nbsp;&lt;br&gt;O&amp;nbsp;&lt;br&gt;ESISTE TAG #DEMO" style="shape=process;whiteSpace=wrap;html=1;backgroundOutline=1;" vertex="1" parent="1">
          <mxGeometry x="1275" y="1050" width="275" height="60" as="geometry" />
        </mxCell>
        <mxCell id="67jnev-_NZW0IaywCIKm-154" value="SE &lt;br&gt;ESISTE TAG D.NI&amp;nbsp;&lt;br&gt;E&amp;nbsp;&lt;br&gt;ESISTE TAG #COM" style="shape=process;whiteSpace=wrap;html=1;backgroundOutline=1;" vertex="1" parent="1">
          <mxGeometry x="1275" y="1140" width="275" height="60" as="geometry" />
        </mxCell>
        <mxCell id="67jnev-_NZW0IaywCIKm-155" value="TAG #MAIL1" style="rounded=0;whiteSpace=wrap;html=1;" vertex="1" parent="1">
          <mxGeometry x="410" y="665" width="130" height="60" as="geometry" />
        </mxCell>
        <mxCell id="67jnev-_NZW0IaywCIKm-157" value="" style="edgeStyle=orthogonalEdgeStyle;rounded=0;orthogonalLoop=1;jettySize=auto;html=1;entryX=1;entryY=0.5;entryDx=0;entryDy=0;" edge="1" parent="1" source="67jnev-_NZW0IaywCIKm-126" target="67jnev-_NZW0IaywCIKm-138">
          <mxGeometry relative="1" as="geometry">
            <mxPoint x="1201" y="540" as="sourcePoint" />
            <mxPoint x="325" y="695" as="targetPoint" />
            <Array as="points">
              <mxPoint x="1201" y="695" />
            </Array>
          </mxGeometry>
        </mxCell>
        <mxCell id="67jnev-_NZW0IaywCIKm-138" value="Click on Demo" style="rhombus;whiteSpace=wrap;html=1;" vertex="1" parent="1">
          <mxGeometry x="1161" y="550" width="80" height="80" as="geometry" />
        </mxCell>
      </root>
    </mxGraphModel>
  </diagram>
</mxfile>
